<svg xmlns="http://www.w3.org/2000/svg" xmlns:xlink="http://www.w3.org/1999/xlink" width="500" zoomAndPan="magnify" viewBox="0 0 375 374.999991" height="500" preserveAspectRatio="xMidYMid meet" version="1.2"><defs><clipPath id="07768cc6a6"><path d="M 33.089844 55 L 233 55 L 233 370.917969 L 33.089844 370.917969 Z M 33.089844 55 "/></clipPath><clipPath id="8f2895de19"><path d="M 283 102 L 358.898438 102 L 358.898438 222.914062 L 283 222.914062 Z M 283 102 "/></clipPath><clipPath id="cafbc52670"><path d="M 352 105 L 358.898438 105 L 358.898438 219.792969 L 352 219.792969 Z M 352 105 "/></clipPath><clipPath id="fa89c80cec"><path d="M 321 102 L 358.898438 102 L 358.898438 222.914062 L 321 222.914062 Z M 321 102 "/></clipPath></defs><g id="d27d50cb69"><g clip-rule="nonzero" clip-path="url(#07768cc6a6)"><path style=" stroke:none;fill-rule:nonzero;fill:#ffffff;fill-opacity:1;" d="M 104.277344 242.257812 L 45.984375 300.550781 C 29.882812 316.652344 29.882812 342.75 45.984375 358.851562 C 62.074219 374.941406 88.171875 374.941406 104.277344 358.851562 L 220.867188 242.257812 C 236.96875 226.15625 236.96875 200.058594 220.867188 183.957031 L 104.277344 67.367188 C 88.171875 51.261719 62.074219 51.261719 45.984375 67.367188 C 29.882812 83.46875 29.882812 109.566406 45.984375 125.667969 L 104.277344 183.957031 C 120.378906 200.058594 120.378906 226.15625 104.277344 242.257812 "/></g><path style=" stroke:none;fill-rule:nonzero;fill:#ffffff;fill-opacity:1;" d="M 44.242188 224.183594 L 22.070312 246.34375 C 15.964844 252.460938 15.964844 262.382812 22.070312 268.503906 C 28.1875 274.621094 38.125 274.621094 44.242188 268.503906 L 88.550781 224.183594 C 94.671875 218.0625 94.671875 208.140625 88.550781 202.023438 L 44.242188 157.703125 C 38.125 151.582031 28.1875 151.582031 22.070312 157.703125 C 15.964844 163.820312 15.964844 173.742188 22.070312 179.863281 L 44.242188 202.023438 C 50.347656 208.140625 50.347656 218.0625 44.242188 224.183594 "/><path style=" stroke:none;fill-rule:nonzero;fill:#000000;fill-opacity:1;" d="M 33.164062 273.085938 C 32.089844 273.085938 31.003906 272.976562 29.945312 272.757812 C 32.832031 272.148438 35.574219 270.746094 37.820312 268.503906 L 82.140625 224.183594 C 88.246094 218.0625 88.246094 208.140625 82.140625 202.023438 L 37.820312 157.703125 C 35.574219 155.472656 32.832031 154.058594 29.945312 153.460938 C 31.003906 153.238281 32.089844 153.128906 33.164062 153.128906 C 37.171875 153.128906 41.183594 154.652344 44.242188 157.703125 L 88.550781 202.023438 C 91.609375 205.082031 93.148438 209.09375 93.148438 213.101562 C 93.148438 217.113281 91.609375 221.121094 88.550781 224.183594 L 44.242188 268.503906 C 41.183594 271.5625 37.171875 273.085938 33.164062 273.085938 "/><path style=" stroke:none;fill-rule:nonzero;fill:#000000;fill-opacity:1;" d="M 200.902344 262.226562 L 142.820312 204.144531 C 126.726562 188.039062 126.726562 161.945312 142.820312 145.839844 L 162.785156 125.875 L 220.867188 183.957031 C 228.925781 192.003906 232.945312 202.558594 232.945312 213.101562 C 232.945312 223.660156 228.925781 234.203125 220.867188 242.257812 L 200.902344 262.226562 "/><path style=" stroke:none;fill-rule:nonzero;fill:#cc5500;fill-opacity:1;" d="M 272.113281 133.140625 L 330.414062 74.835938 C 346.515625 58.746094 346.515625 32.636719 330.414062 16.546875 C 314.3125 0.445312 288.214844 0.445312 272.113281 16.546875 L 155.519531 133.140625 C 139.429688 149.230469 139.429688 175.339844 155.519531 191.429688 L 272.113281 308.019531 C 288.214844 324.125 314.3125 324.125 330.414062 308.019531 C 346.515625 291.929688 346.515625 265.820312 330.414062 249.730469 L 272.113281 191.429688 C 256.023438 175.339844 256.023438 149.230469 272.113281 133.140625 "/><g clip-rule="nonzero" clip-path="url(#8f2895de19)"><path style=" stroke:none;fill-rule:nonzero;fill:#cc5500;fill-opacity:1;" d="M 332.15625 151.203125 L 354.316406 129.042969 C 360.4375 122.925781 360.4375 113.003906 354.316406 106.882812 C 348.199219 100.765625 338.277344 100.765625 332.15625 106.882812 L 287.835938 151.203125 C 281.71875 157.324219 281.71875 167.246094 287.835938 173.363281 L 332.15625 217.6875 C 338.277344 223.804688 348.199219 223.804688 354.316406 217.6875 C 360.4375 211.566406 360.4375 201.644531 354.316406 195.523438 L 332.15625 173.363281 C 326.039062 167.246094 326.039062 157.324219 332.15625 151.203125 "/></g><g clip-rule="nonzero" clip-path="url(#cafbc52670)"><path style=" stroke:none;fill-rule:nonzero;fill:#ffffff;fill-opacity:1;" d="M 352.488281 219.257812 C 353.121094 218.78125 353.742188 218.257812 354.316406 217.6875 C 357.375 214.625 358.898438 210.617188 358.898438 206.605469 C 358.898438 210.617188 357.375 214.625 354.316406 217.6875 C 353.742188 218.257812 353.121094 218.78125 352.488281 219.257812 M 354.316406 106.882812 C 353.78125 106.347656 353.207031 105.847656 352.609375 105.398438 C 353.207031 105.847656 353.78125 106.347656 354.316406 106.882812 "/></g><g clip-rule="nonzero" clip-path="url(#fa89c80cec)"><path style=" stroke:none;fill-rule:nonzero;fill:#cc5500;fill-opacity:1;" d="M 343.25 222.269531 C 342.164062 222.269531 341.089844 222.160156 340.03125 221.925781 C 342.90625 221.332031 345.648438 219.917969 347.894531 217.6875 C 354.011719 211.566406 354.011719 201.644531 347.894531 195.523438 L 325.734375 173.363281 C 319.613281 167.246094 319.613281 157.324219 325.734375 151.203125 L 347.894531 129.042969 C 354.011719 122.925781 354.011719 113.003906 347.894531 106.882812 C 345.648438 104.640625 342.90625 103.238281 340.03125 102.628906 C 341.089844 102.410156 342.164062 102.300781 343.25 102.300781 C 346.539062 102.300781 349.84375 103.335938 352.609375 105.398438 C 353.207031 105.847656 353.78125 106.347656 354.316406 106.882812 C 357.375 109.945312 358.898438 113.953125 358.898438 117.964844 C 358.898438 121.972656 357.375 125.984375 354.316406 129.042969 L 332.15625 151.203125 C 329.097656 154.265625 327.5625 158.273438 327.5625 162.285156 C 327.5625 166.296875 329.097656 170.304688 332.15625 173.363281 L 354.316406 195.523438 C 357.375 198.585938 358.898438 202.59375 358.898438 206.605469 C 358.898438 210.617188 357.375 214.625 354.316406 217.6875 C 353.742188 218.257812 353.121094 218.78125 352.488281 219.257812 C 349.746094 221.269531 346.492188 222.269531 343.25 222.269531 "/></g></g></svg>