<svg xmlns="http://www.w3.org/2000/svg" xmlns:xlink="http://www.w3.org/1999/xlink" width="500" zoomAndPan="magnify" viewBox="0 0 375 374.999991" height="500" preserveAspectRatio="xMidYMid meet" version="1.2"><defs><clipPath id="62345b1091"><path d="M 96 49.410156 L 217 49.410156 L 217 240.28125 L 96 240.28125 Z M 96 49.410156 "/></clipPath><clipPath id="3cdda9551b"><path d="M 246.449219 78 L 292.367188 78 L 292.367188 151 L 246.449219 151 Z M 246.449219 78 "/></clipPath><clipPath id="2c454fe3fe"><path d="M 288 80 L 292.367188 80 L 292.367188 149 L 288 149 Z M 288 80 "/></clipPath><clipPath id="4527fccc15"><path d="M 269.03125 78 L 292.367188 78 L 292.367188 151 L 269.03125 151 Z M 269.03125 78 "/></clipPath></defs><g id="6d2f451ecc"><g clip-rule="nonzero" clip-path="url(#62345b1091)"><path style=" stroke:none;fill-rule:nonzero;fill:#000000;fill-opacity:1;" d="M 138.832031 162.695312 L 103.683594 197.847656 C 93.972656 207.558594 93.972656 223.296875 103.683594 233.003906 C 113.386719 242.707031 129.125 242.707031 138.832031 233.003906 L 209.144531 162.695312 C 218.855469 152.984375 218.855469 137.246094 209.144531 127.535156 L 138.832031 57.226562 C 129.125 47.515625 113.386719 47.515625 103.683594 57.226562 C 93.972656 66.933594 93.972656 82.671875 103.683594 92.382812 L 138.832031 127.535156 C 148.542969 137.246094 148.542969 152.984375 138.832031 162.695312 "/></g><path style=" stroke:none;fill-rule:nonzero;fill:#000000;fill-opacity:1;" d="M 102.632812 151.792969 L 89.261719 165.15625 C 85.578125 168.847656 85.578125 174.832031 89.261719 178.519531 C 92.949219 182.210938 98.941406 182.210938 102.632812 178.519531 L 129.351562 151.792969 C 133.042969 148.101562 133.042969 142.121094 129.351562 138.429688 L 102.632812 111.703125 C 98.941406 108.011719 92.949219 108.011719 89.261719 111.703125 C 85.578125 115.390625 85.578125 121.375 89.261719 125.066406 L 102.632812 138.429688 C 106.3125 142.121094 106.3125 148.101562 102.632812 151.792969 "/><path style=" stroke:none;fill-rule:nonzero;fill:#ffffff;fill-opacity:1;" d="M 95.949219 181.285156 C 95.300781 181.285156 94.648438 181.21875 94.007812 181.085938 C 95.75 180.71875 97.40625 179.875 98.757812 178.519531 L 125.484375 151.792969 C 129.167969 148.101562 129.167969 142.121094 125.484375 138.429688 L 98.757812 111.703125 C 97.40625 110.355469 95.75 109.503906 94.007812 109.144531 C 94.648438 109.011719 95.300781 108.945312 95.949219 108.945312 C 98.367188 108.945312 100.785156 109.863281 102.632812 111.703125 L 129.351562 138.429688 C 131.195312 140.273438 132.121094 142.691406 132.121094 145.113281 C 132.121094 147.53125 131.195312 149.949219 129.351562 151.792969 L 102.632812 178.519531 C 100.785156 180.367188 98.367188 181.285156 95.949219 181.285156 "/><path style=" stroke:none;fill-rule:nonzero;fill:#ffffff;fill-opacity:1;" d="M 197.105469 174.734375 L 162.078125 139.707031 C 152.375 130 152.375 114.261719 162.078125 104.550781 L 174.117188 92.507812 L 209.144531 127.535156 C 214.003906 132.386719 216.429688 138.753906 216.429688 145.113281 C 216.429688 151.476562 214.003906 157.835938 209.144531 162.695312 L 197.105469 174.734375 "/><path style=" stroke:none;fill-rule:nonzero;fill:#cc5500;fill-opacity:1;" d="M 240.046875 96.890625 L 275.207031 61.730469 C 284.917969 52.027344 284.917969 36.28125 275.207031 26.578125 C 265.496094 16.867188 249.757812 16.867188 240.046875 26.578125 L 169.738281 96.890625 C 160.035156 106.59375 160.035156 122.339844 169.738281 132.042969 L 240.046875 202.351562 C 249.757812 212.0625 265.496094 212.0625 275.207031 202.351562 C 284.917969 192.648438 284.917969 176.902344 275.207031 167.199219 L 240.046875 132.042969 C 230.34375 122.339844 230.34375 106.59375 240.046875 96.890625 "/><g clip-rule="nonzero" clip-path="url(#3cdda9551b)"><path style=" stroke:none;fill-rule:nonzero;fill:#cc5500;fill-opacity:1;" d="M 276.257812 107.785156 L 289.621094 94.421875 C 293.3125 90.730469 293.3125 84.746094 289.621094 81.054688 C 285.929688 77.367188 279.949219 77.367188 276.257812 81.054688 L 249.53125 107.785156 C 245.839844 111.472656 245.839844 117.457031 249.53125 121.148438 L 276.257812 147.875 C 279.949219 151.566406 285.929688 151.566406 289.621094 147.875 C 293.3125 144.183594 293.3125 138.203125 289.621094 134.511719 L 276.257812 121.148438 C 272.566406 117.457031 272.566406 111.472656 276.257812 107.785156 "/></g><g clip-rule="nonzero" clip-path="url(#2c454fe3fe)"><path style=" stroke:none;fill-rule:nonzero;fill:#ffffff;fill-opacity:1;" d="M 288.519531 148.824219 C 288.902344 148.535156 289.277344 148.222656 289.621094 147.875 C 291.464844 146.03125 292.386719 143.613281 292.386719 141.195312 C 292.386719 143.613281 291.464844 146.03125 289.621094 147.875 C 289.277344 148.222656 288.902344 148.535156 288.519531 148.824219 M 289.621094 81.054688 C 289.296875 80.734375 288.953125 80.429688 288.59375 80.160156 C 288.953125 80.429688 289.296875 80.734375 289.621094 81.054688 "/></g><g clip-rule="nonzero" clip-path="url(#4527fccc15)"><path style=" stroke:none;fill-rule:nonzero;fill:#cc5500;fill-opacity:1;" d="M 282.945312 150.640625 C 282.292969 150.640625 281.644531 150.574219 281.007812 150.433594 C 282.742188 150.074219 284.394531 149.21875 285.746094 147.875 C 289.4375 144.183594 289.4375 138.203125 285.746094 134.511719 L 272.382812 121.148438 C 268.695312 117.457031 268.695312 111.472656 272.382812 107.785156 L 285.746094 94.421875 C 289.4375 90.730469 289.4375 84.746094 285.746094 81.054688 C 284.394531 79.703125 282.742188 78.859375 281.007812 78.492188 C 281.644531 78.359375 282.292969 78.292969 282.945312 78.292969 C 284.929688 78.292969 286.921875 78.917969 288.59375 80.160156 C 288.953125 80.429688 289.296875 80.734375 289.621094 81.054688 C 291.464844 82.902344 292.386719 85.320312 292.386719 87.738281 C 292.386719 90.15625 291.464844 92.574219 289.621094 94.421875 L 276.257812 107.785156 C 274.414062 109.628906 273.488281 112.046875 273.488281 114.464844 C 273.488281 116.882812 274.414062 119.304688 276.257812 121.148438 L 289.621094 134.511719 C 291.464844 136.355469 292.386719 138.773438 292.386719 141.195312 C 292.386719 143.613281 291.464844 146.03125 289.621094 147.875 C 289.277344 148.222656 288.902344 148.535156 288.519531 148.824219 C 286.863281 150.035156 284.902344 150.640625 282.945312 150.640625 "/></g><g style="fill:#000000;fill-opacity:1;"><g transform="translate(15.426668, 310.743529)"><path style="stroke:none" d="M 88.078125 0 L 73.625 0 L 67.140625 -42.921875 L 47.515625 -0.09375 L 44.046875 -0.09375 L 24.421875 -42.921875 L 17.9375 0 L 3.375 0 L 13.703125 -65.734375 L 27.984375 -65.734375 L 45.734375 -25.453125 L 63.578125 -65.734375 L 77.84375 -65.734375 Z M 88.078125 0 "/></g></g><g style="fill:#000000;fill-opacity:1;"><g transform="translate(101.628879, 310.743529)"><path style="stroke:none" d="M 51.171875 0 L 46.578125 -12.484375 L 20.375 -12.484375 L 15.875 0 L 0.84375 0 L 26.578125 -65.734375 L 40 -65.734375 L 66.578125 0 Z M 33.4375 -48.359375 L 24.890625 -24.890625 L 42.0625 -24.890625 Z M 33.4375 -48.359375 "/></g></g><g style="fill:#000000;fill-opacity:1;"><g transform="translate(163.698073, 310.743529)"><path style="stroke:none" d="M 43.671875 0 L 30.890625 -22.4375 L 21.78125 -22.4375 L 21.78125 0 L 7.515625 0 L 7.515625 -65.734375 L 34.09375 -65.734375 C 38.46875 -65.734375 42.375 -64.789062 45.8125 -62.90625 C 49.257812 -61.03125 51.984375 -58.460938 53.984375 -55.203125 C 55.992188 -51.953125 57 -48.203125 57 -43.953125 C 57 -39.691406 55.914062 -35.882812 53.75 -32.53125 C 51.59375 -29.1875 48.703125 -26.640625 45.078125 -24.890625 L 59.625 0 Z M 21.78125 -52.59375 L 21.78125 -35.59375 L 33.15625 -35.59375 C 36.09375 -35.59375 38.40625 -36.390625 40.09375 -37.984375 C 41.789062 -39.578125 42.640625 -41.597656 42.640625 -44.046875 C 42.640625 -46.546875 41.789062 -48.59375 40.09375 -50.1875 C 38.40625 -51.789062 36.09375 -52.59375 33.15625 -52.59375 Z M 21.78125 -52.59375 "/></g></g><g style="fill:#000000;fill-opacity:1;"><g transform="translate(220.414807, 310.743529)"><path style="stroke:none" d="M 38.6875 1.40625 C 33.675781 1.40625 29.039062 0.546875 24.78125 -1.171875 C 20.53125 -2.890625 16.820312 -5.296875 13.65625 -8.390625 C 10.5 -11.492188 8.039062 -15.128906 6.28125 -19.296875 C 4.53125 -23.460938 3.65625 -27.984375 3.65625 -32.859375 C 3.65625 -37.742188 4.53125 -42.269531 6.28125 -46.4375 C 8.039062 -50.601562 10.5 -54.234375 13.65625 -57.328125 C 16.820312 -60.429688 20.53125 -62.84375 24.78125 -64.5625 C 29.039062 -66.28125 33.675781 -67.140625 38.6875 -67.140625 C 43.695312 -67.140625 48.328125 -66.28125 52.578125 -64.5625 C 56.835938 -62.84375 60.53125 -60.429688 63.65625 -57.328125 C 66.789062 -54.234375 69.234375 -50.601562 70.984375 -46.4375 C 72.742188 -42.269531 73.625 -37.742188 73.625 -32.859375 C 73.625 -27.984375 72.742188 -23.460938 70.984375 -19.296875 C 69.234375 -15.128906 66.789062 -11.492188 63.65625 -8.390625 C 60.53125 -5.296875 56.835938 -2.890625 52.578125 -1.171875 C 48.328125 0.546875 43.695312 1.40625 38.6875 1.40625 Z M 38.6875 -12.015625 C 42.632812 -12.015625 46.15625 -12.921875 49.25 -14.734375 C 52.351562 -16.554688 54.796875 -19.03125 56.578125 -22.15625 C 58.359375 -25.289062 59.25 -28.859375 59.25 -32.859375 C 59.25 -36.804688 58.359375 -40.359375 56.578125 -43.515625 C 54.796875 -46.679688 52.351562 -49.171875 49.25 -50.984375 C 46.15625 -52.804688 42.632812 -53.71875 38.6875 -53.71875 C 34.800781 -53.71875 31.289062 -52.804688 28.15625 -50.984375 C 25.03125 -49.171875 22.5625 -46.679688 20.75 -43.515625 C 18.9375 -40.359375 18.03125 -36.804688 18.03125 -32.859375 C 18.03125 -28.921875 18.9375 -25.367188 20.75 -22.203125 C 22.5625 -19.046875 25.03125 -16.554688 28.15625 -14.734375 C 31.289062 -12.921875 34.800781 -12.015625 38.6875 -12.015625 Z M 38.6875 -12.015625 "/></g></g><g style="fill:#000000;fill-opacity:1;"><g transform="translate(292.343802, 310.743529)"><path style="stroke:none" d="M 49.203125 -65.734375 L 63.109375 -65.734375 L 63.109375 0 L 51.265625 0 L 21.5 -41.03125 L 21.5 0 L 7.515625 0 L 7.515625 -65.734375 L 20.375 -65.734375 L 49.203125 -25.640625 Z M 49.203125 -65.734375 "/></g></g><g style="fill:#000000;fill-opacity:1;"><g transform="translate(149.964924, 350.672748)"><path style="stroke:none" d="M 2.265625 -19.046875 L 6.671875 -19.046875 L 6.671875 -3.59375 L 16.21875 -3.59375 L 16.21875 0 L 2.265625 0 Z M 2.265625 -19.046875 "/></g></g><g style="fill:#000000;fill-opacity:1;"><g transform="translate(172.414795, 350.672748)"><path style="stroke:none" d="M 14.8125 -4.078125 L 5.953125 -4.078125 L 4.265625 0 L -0.25 0 L 8.25 -19.046875 L 12.609375 -19.046875 L 21.125 0 L 16.5 0 Z M 13.421875 -7.4375 L 10.390625 -14.71875 L 7.375 -7.4375 Z M 13.421875 -7.4375 "/></g></g><g style="fill:#000000;fill-opacity:1;"><g transform="translate(199.273016, 350.672748)"><path style="stroke:none" d="M 16.25 -9.90625 C 17.332031 -9.5625 18.179688 -8.984375 18.796875 -8.171875 C 19.421875 -7.367188 19.734375 -6.378906 19.734375 -5.203125 C 19.734375 -3.523438 19.082031 -2.238281 17.78125 -1.34375 C 16.488281 -0.445312 14.597656 0 12.109375 0 L 2.265625 0 L 2.265625 -19.046875 L 11.5625 -19.046875 C 13.882812 -19.046875 15.664062 -18.601562 16.90625 -17.71875 C 18.15625 -16.832031 18.78125 -15.625 18.78125 -14.09375 C 18.78125 -13.175781 18.554688 -12.351562 18.109375 -11.625 C 17.671875 -10.894531 17.050781 -10.320312 16.25 -9.90625 Z M 6.640625 -15.734375 L 6.640625 -11.234375 L 11.03125 -11.234375 C 12.113281 -11.234375 12.9375 -11.425781 13.5 -11.8125 C 14.0625 -12.195312 14.34375 -12.757812 14.34375 -13.5 C 14.34375 -14.238281 14.0625 -14.796875 13.5 -15.171875 C 12.9375 -15.546875 12.113281 -15.734375 11.03125 -15.734375 Z M 11.78125 -3.328125 C 12.945312 -3.328125 13.820312 -3.515625 14.40625 -3.890625 C 15 -4.273438 15.296875 -4.863281 15.296875 -5.65625 C 15.296875 -7.238281 14.125 -8.03125 11.78125 -8.03125 L 6.640625 -8.03125 L 6.640625 -3.328125 Z M 11.78125 -3.328125 "/></g></g><g style="fill:#000000;fill-opacity:1;"><g transform="translate(226.10402, 350.672748)"><path style="stroke:none" d="M 8.515625 0.328125 C 7.015625 0.328125 5.5625 0.125 4.15625 -0.28125 C 2.75 -0.6875 1.617188 -1.21875 0.765625 -1.875 L 2.265625 -5.203125 C 3.078125 -4.597656 4.046875 -4.113281 5.171875 -3.75 C 6.296875 -3.394531 7.421875 -3.21875 8.546875 -3.21875 C 9.796875 -3.21875 10.71875 -3.398438 11.3125 -3.765625 C 11.914062 -4.140625 12.21875 -4.632812 12.21875 -5.25 C 12.21875 -5.707031 12.039062 -6.082031 11.6875 -6.375 C 11.332031 -6.675781 10.878906 -6.914062 10.328125 -7.09375 C 9.773438 -7.28125 9.023438 -7.484375 8.078125 -7.703125 C 6.628906 -8.046875 5.441406 -8.390625 4.515625 -8.734375 C 3.585938 -9.078125 2.789062 -9.628906 2.125 -10.390625 C 1.46875 -11.160156 1.140625 -12.179688 1.140625 -13.453125 C 1.140625 -14.554688 1.4375 -15.554688 2.03125 -16.453125 C 2.632812 -17.347656 3.539062 -18.054688 4.75 -18.578125 C 5.957031 -19.109375 7.429688 -19.375 9.171875 -19.375 C 10.390625 -19.375 11.578125 -19.226562 12.734375 -18.9375 C 13.898438 -18.65625 14.914062 -18.238281 15.78125 -17.6875 L 14.421875 -14.34375 C 12.660156 -15.34375 10.898438 -15.84375 9.140625 -15.84375 C 7.910156 -15.84375 7 -15.640625 6.40625 -15.234375 C 5.820312 -14.835938 5.53125 -14.3125 5.53125 -13.65625 C 5.53125 -13.007812 5.867188 -12.523438 6.546875 -12.203125 C 7.222656 -11.890625 8.257812 -11.578125 9.65625 -11.265625 C 11.113281 -10.921875 12.300781 -10.578125 13.21875 -10.234375 C 14.144531 -9.890625 14.941406 -9.34375 15.609375 -8.59375 C 16.273438 -7.851562 16.609375 -6.847656 16.609375 -5.578125 C 16.609375 -4.492188 16.300781 -3.5 15.6875 -2.59375 C 15.082031 -1.695312 14.171875 -0.984375 12.953125 -0.453125 C 11.734375 0.0664062 10.253906 0.328125 8.515625 0.328125 Z M 8.515625 0.328125 "/></g></g></g></svg>