<svg xmlns="http://www.w3.org/2000/svg" xmlns:xlink="http://www.w3.org/1999/xlink" width="500" zoomAndPan="magnify" viewBox="0 0 375 374.999991" height="500" preserveAspectRatio="xMidYMid meet" version="1.2"><defs><clipPath id="0d3d6f6100"><path d="M 36 59 L 233 59 L 233 369.65625 L 36 369.65625 Z M 36 59 "/></clipPath><clipPath id="6e48bfddc4"><path d="M 281.160156 105 L 356.101562 105 L 356.101562 224 L 281.160156 224 Z M 281.160156 105 "/></clipPath><clipPath id="885cf61cae"><path d="M 349 108 L 356.101562 108 L 356.101562 220.972656 L 349 220.972656 Z M 349 108 "/></clipPath><clipPath id="176285eb5e"><path d="M 318 105 L 356.101562 105 L 356.101562 224 L 318 224 Z M 318 105 "/></clipPath></defs><g id="f33c4aaff1"><g clip-rule="nonzero" clip-path="url(#0d3d6f6100)"><path style=" stroke:none;fill-rule:nonzero;fill:#000000;fill-opacity:1;" d="M 105.589844 243.074219 L 48.238281 300.421875 C 32.398438 316.265625 32.398438 341.941406 48.238281 357.785156 C 64.070312 373.613281 89.746094 373.613281 105.589844 357.785156 L 220.296875 243.074219 C 236.140625 227.234375 236.140625 201.558594 220.296875 185.714844 L 105.589844 71.003906 C 89.746094 55.164062 64.070312 55.164062 48.238281 71.003906 C 32.398438 86.847656 32.398438 112.523438 48.238281 128.367188 L 105.589844 185.714844 C 121.429688 201.558594 121.429688 227.234375 105.589844 243.074219 "/></g><path style=" stroke:none;fill-rule:nonzero;fill:#000000;fill-opacity:1;" d="M 46.523438 225.289062 L 24.710938 247.09375 C 18.703125 253.113281 18.703125 262.875 24.710938 268.894531 C 30.730469 274.914062 40.503906 274.914062 46.523438 268.894531 L 90.117188 225.289062 C 96.136719 219.269531 96.136719 209.507812 90.117188 203.488281 L 46.523438 159.882812 C 40.503906 153.863281 30.730469 153.863281 24.710938 159.882812 C 18.703125 165.902344 18.703125 175.664062 24.710938 181.683594 L 46.523438 203.488281 C 52.535156 209.507812 52.535156 219.269531 46.523438 225.289062 "/><path style=" stroke:none;fill-rule:nonzero;fill:#ffffff;fill-opacity:1;" d="M 35.625 273.402344 C 34.570312 273.402344 33.5 273.296875 32.457031 273.082031 C 35.300781 272.480469 38 271.101562 40.203125 268.894531 L 83.808594 225.289062 C 89.816406 219.269531 89.816406 209.507812 83.808594 203.488281 L 40.203125 159.882812 C 38 157.6875 35.300781 156.296875 32.457031 155.710938 C 33.5 155.492188 34.570312 155.386719 35.625 155.386719 C 39.570312 155.386719 43.515625 156.882812 46.523438 159.882812 L 90.117188 203.488281 C 93.128906 206.496094 94.640625 210.441406 94.640625 214.390625 C 94.640625 218.335938 93.128906 222.28125 90.117188 225.289062 L 46.523438 268.894531 C 43.515625 271.90625 39.570312 273.402344 35.625 273.402344 "/><path style=" stroke:none;fill-rule:nonzero;fill:#ffffff;fill-opacity:1;" d="M 200.652344 262.71875 L 143.507812 205.574219 C 127.679688 189.730469 127.679688 164.054688 143.507812 148.214844 L 163.152344 128.570312 L 220.296875 185.714844 C 228.226562 193.628906 232.183594 204.015625 232.183594 214.390625 C 232.183594 224.773438 228.226562 235.148438 220.296875 243.074219 L 200.652344 262.71875 "/><path style=" stroke:none;fill-rule:nonzero;fill:#cc5500;fill-opacity:1;" d="M 270.714844 135.71875 L 328.074219 78.355469 C 343.917969 62.527344 343.917969 36.839844 328.074219 21.007812 C 312.234375 5.167969 286.558594 5.167969 270.714844 21.007812 L 156.003906 135.71875 C 140.175781 151.546875 140.175781 177.234375 156.003906 193.066406 L 270.714844 307.773438 C 286.558594 323.617188 312.234375 323.617188 328.074219 307.773438 C 343.917969 291.945312 343.917969 266.257812 328.074219 250.425781 L 270.714844 193.066406 C 254.882812 177.234375 254.882812 151.546875 270.714844 135.71875 "/><g clip-rule="nonzero" clip-path="url(#6e48bfddc4)"><path style=" stroke:none;fill-rule:nonzero;fill:#cc5500;fill-opacity:1;" d="M 329.789062 153.492188 L 351.59375 131.6875 C 357.613281 125.667969 357.613281 115.90625 351.59375 109.886719 C 345.570312 103.863281 335.808594 103.863281 329.789062 109.886719 L 286.183594 153.492188 C 280.164062 159.511719 280.164062 169.273438 286.183594 175.292969 L 329.789062 218.898438 C 335.808594 224.917969 345.570312 224.917969 351.59375 218.898438 C 357.613281 212.878906 357.613281 203.117188 351.59375 197.09375 L 329.789062 175.292969 C 323.769531 169.273438 323.769531 159.511719 329.789062 153.492188 "/></g><g clip-rule="nonzero" clip-path="url(#885cf61cae)"><path style=" stroke:none;fill-rule:nonzero;fill:#ffffff;fill-opacity:1;" d="M 349.792969 220.445312 C 350.417969 219.976562 351.027344 219.460938 351.59375 218.898438 C 354.601562 215.886719 356.101562 211.941406 356.101562 207.996094 C 356.101562 211.941406 354.601562 215.886719 351.59375 218.898438 C 351.027344 219.460938 350.417969 219.976562 349.792969 220.445312 M 351.59375 109.886719 C 351.066406 109.359375 350.5 108.867188 349.914062 108.421875 C 350.5 108.867188 351.066406 109.359375 351.59375 109.886719 "/></g><g clip-rule="nonzero" clip-path="url(#176285eb5e)"><path style=" stroke:none;fill-rule:nonzero;fill:#cc5500;fill-opacity:1;" d="M 340.703125 223.40625 C 339.636719 223.40625 338.582031 223.300781 337.539062 223.070312 C 340.367188 222.484375 343.066406 221.09375 345.273438 218.898438 C 351.292969 212.878906 351.292969 203.117188 345.273438 197.09375 L 323.46875 175.292969 C 317.449219 169.273438 317.449219 159.511719 323.46875 153.492188 L 345.273438 131.6875 C 351.292969 125.667969 351.292969 115.90625 345.273438 109.886719 C 343.066406 107.679688 340.367188 106.300781 337.539062 105.699219 C 338.582031 105.484375 339.636719 105.375 340.703125 105.375 C 343.941406 105.375 347.191406 106.394531 349.914062 108.421875 C 350.5 108.867188 351.066406 109.359375 351.59375 109.886719 C 354.601562 112.894531 356.101562 116.839844 356.101562 120.785156 C 356.101562 124.730469 354.601562 128.675781 351.59375 131.6875 L 329.789062 153.492188 C 326.78125 156.5 325.269531 160.445312 325.269531 164.390625 C 325.269531 168.335938 326.78125 172.28125 329.789062 175.292969 L 351.59375 197.09375 C 354.601562 200.105469 356.101562 204.050781 356.101562 207.996094 C 356.101562 211.941406 354.601562 215.886719 351.59375 218.898438 C 351.027344 219.460938 350.417969 219.976562 349.792969 220.445312 C 347.09375 222.421875 343.894531 223.40625 340.703125 223.40625 "/></g></g></svg>